<?xml version="1.0" encoding="UTF-8" standalone="no"?>
<svg
   version="1.1"
   id="Layer_1"
   x="0px"
   y="0px"
   viewBox="0 0 144 144"
   style="enable-background:new 0 0 144 144;"
   xml:space="preserve"
   sodipodi:docname="GHF_WebsiteHeaderLogoOrig.svg"
   inkscape:version="1.2.2 (b0a8486541, 2022-12-01)"
   xmlns:inkscape="http://www.inkscape.org/namespaces/inkscape"
   xmlns:sodipodi="http://sodipodi.sourceforge.net/DTD/sodipodi-0.dtd"
   xmlns="http://www.w3.org/2000/svg"
   xmlns:svg="http://www.w3.org/2000/svg"
   xmlns:rdf="http://www.w3.org/1999/02/22-rdf-syntax-ns#"
   xmlns:cc="http://creativecommons.org/ns#"
   xmlns:dc="http://purl.org/dc/elements/1.1/"><metadata
   id="metadata124"><rdf:RDF><cc:Work
       rdf:about=""><dc:format>image/svg+xml</dc:format><dc:type
         rdf:resource="http://purl.org/dc/dcmitype/StillImage" /></cc:Work></rdf:RDF></metadata><defs
   id="defs122">
	
	

		
		<linearGradient
   id="SVGID_1_"
   gradientUnits="userSpaceOnUse"
   x1="42.923901"
   y1="93.870903"
   x2="249.0034"
   y2="-42.138"
   gradientTransform="translate(16.504762,-5.3968254)">
			<stop
   offset="0"
   style="stop-color:#FFFFFF"
   id="stop46" />
			<stop
   offset="1"
   style="stop-color:#000000"
   id="stop48" />
		</linearGradient>
		
		
		
		
		
		
	
			
				
			
		</defs><sodipodi:namedview
   pagecolor="#ffffff"
   bordercolor="#666666"
   borderopacity="1"
   objecttolerance="10"
   gridtolerance="10"
   guidetolerance="10"
   inkscape:pageopacity="0"
   inkscape:pageshadow="2"
   inkscape:window-width="1920"
   inkscape:window-height="1004"
   id="namedview120"
   showgrid="false"
   inkscape:zoom="4.8035779"
   inkscape:cx="63.598427"
   inkscape:cy="72.133732"
   inkscape:window-x="0"
   inkscape:window-y="39"
   inkscape:window-maximized="1"
   inkscape:current-layer="Layer_1"
   inkscape:showpageshadow="2"
   inkscape:pagecheckerboard="0"
   inkscape:deskcolor="#d1d1d1" />
<style
   type="text/css"
   id="style10">
	.st0{fill:#FFFFFF;}
	.st1{fill:url(#SVGID_1_);}
	.st2{fill:#CF202F;}
	.st3{fill:#010101;}
	.st4{fill:#EAE5E1;}
</style>
<g
   id="g533"
   transform="translate(-16.504762,5.3968254)"><g
     id="g42"
     transform="translate(25.904762,-9.3968254)">
		<g
   id="g16">
			<path
   class="st0"
   d="m 74.7,137.4 -0.3,-0.1 c -0.7,-0.3 -1.4,-0.7 -2.1,-1 L 71.7,136 c -0.5,-0.3 -1.1,-0.6 -1.6,-0.9 l -0.5,-0.3 c -0.7,-0.4 -1.3,-0.8 -2,-1.2 l -0.4,-0.3 c -0.4,-0.2 -0.8,-0.5 -1.1,-0.7 -19.7,-0.5 -31.3,-2.6 -33.4,-3 l -1.1,-0.2 v -19.9 l 1.7,0.4 c 1.4,0.3 4.5,1 10.4,1.6 0.2,0 0.4,0 0.7,0.1 -0.2,-0.3 -0.5,-0.7 -0.7,-1 -0.2,-0.4 -0.5,-0.7 -0.7,-1.1 -0.2,-0.3 -0.4,-0.7 -0.6,-1 -0.2,-0.3 -0.4,-0.7 -0.6,-1 -0.2,-0.3 -0.4,-0.6 -0.5,-0.9 -0.3,-0.6 -0.6,-1.1 -0.9,-1.7 l -0.1,-0.2 c -0.2,-0.3 -0.3,-0.6 -0.5,-0.9 -0.2,-0.4 -0.4,-0.7 -0.5,-1.1 -0.2,-0.4 -0.3,-0.7 -0.5,-1 -0.2,-0.4 -0.4,-0.8 -0.5,-1.2 -0.1,-0.2 -0.4,-0.9 -0.4,-0.9 C 37.6,98.9 37.3,98.2 37,97.6 36.9,97.3 36.7,97 36.6,96.7 36.4,96.3 36.3,95.9 36.1,95.5 36,95.2 35.7,94.4 35.7,94.4 35.6,94.1 35.5,93.7 35.3,93.4 35.1,92.8 34.9,92.2 34.7,91.6 34.6,91.2 34.5,90.8 34.3,90.3 34.2,90 34.1,89.7 34.1,89.5 33.7,88 33.3,86.4 33,84.8 L 32.9,84.5 C 32.4,82 32,79.5 31.8,77 v -0.3 c -0.1,-0.7 -0.1,-1.3 -0.2,-2 l -0.1,-1.2 c 0,-0.4 0,-0.8 -0.1,-1.2 0,-0.8 0,-1.7 0,-2.5 v -54 h 1.4 C 56.5,15.8 74.1,6 74.3,5.9 L 75,5.6 75.7,6 c 0.2,0.1 17.8,9.9 41.5,9.9 h 1.4 v 54 c 0,1.6 -0.1,3.2 -0.2,4.9 V 75 c -0.1,0.8 -0.1,1.6 -0.2,2.4 v 0.3 c -0.1,0.8 -0.2,1.5 -0.3,2.3 l -0.1,0.4 c -0.1,0.7 -0.2,1.5 -0.3,2.2 l -0.1,0.5 c -0.1,0.7 -0.3,1.4 -0.4,2.1 l -0.1,0.5 c -0.1,0.7 -0.3,1.3 -0.5,2 l -0.1,0.6 c -0.2,0.6 -0.3,1.3 -0.5,1.9 l -0.2,0.6 c -0.2,0.6 -0.4,1.2 -0.6,1.9 l -0.2,0.7 c -0.2,0.6 -0.4,1.2 -0.6,1.8 l -0.2,0.7 c -0.2,0.6 -0.4,1.2 -0.7,1.7 L 113,98 c -0.2,0.6 -0.5,1.1 -0.7,1.7 l -0.3,0.7 c -0.2,0.5 -0.5,1.1 -0.7,1.6 l -0.4,0.8 c -0.3,0.5 -0.5,1 -0.8,1.5 l -0.4,0.8 c -0.3,0.5 -0.5,1 -0.8,1.5 -0.1,0.3 -0.3,0.5 -0.5,0.8 -0.3,0.5 -0.6,0.9 -0.8,1.4 -0.2,0.3 -0.3,0.5 -0.5,0.8 -0.3,0.5 -0.6,0.9 -0.9,1.4 -0.2,0.3 -0.6,0.8 -0.6,0.8 6.6,-0.7 10,-1.4 11.2,-1.7 l 1.7,-0.4 v 19.9 l -1.1,0.2 c -2.1,0.4 -13.7,2.5 -33.5,3 -0.1,0.1 -0.9,0.6 -0.9,0.6 -0.2,0.1 -0.4,0.3 -0.6,0.4 -0.3,0.2 -0.7,0.4 -1,0.6 l -0.6,0.4 c -0.2,0.1 -0.4,0.2 -0.6,0.4 -0.4,0.2 -0.9,0.5 -1.3,0.7 0,0 -0.8,0.4 -1,0.5 -0.8,0.4 -1.5,0.8 -2.3,1.1 l -0.3,0.1 h -0.6 z"
   id="path12" />
			<path
   class="st0"
   d="m 75,7.1 c 0,0 17.8,10 42.2,10 0,5.8 0,14.8 0,19.1 0,0 0,0 0,0 0,1.7 0,4.5 0,7.7 0,9.7 0,23.6 0,25.8 0,1.6 -0.1,3.2 -0.2,4.8 0,0.1 0,0.1 0,0.2 -0.1,0.8 -0.1,1.6 -0.2,2.4 0,0.1 0,0.2 0,0.3 -0.1,0.7 -0.2,1.5 -0.3,2.2 0,0.1 0,0.3 0,0.4 -0.1,0.7 -0.2,1.4 -0.3,2.1 0,0.2 0,0.3 -0.1,0.5 -0.1,0.7 -0.3,1.4 -0.4,2 0,0.2 -0.1,0.3 -0.1,0.5 -0.1,0.7 -0.3,1.3 -0.5,2 0,0.2 -0.1,0.4 -0.1,0.6 -0.2,0.6 -0.3,1.3 -0.5,1.9 -0.1,0.2 -0.1,0.4 -0.2,0.6 -0.2,0.6 -0.4,1.2 -0.6,1.8 -0.1,0.2 -0.1,0.4 -0.2,0.6 -0.2,0.6 -0.4,1.2 -0.6,1.8 -0.1,0.2 -0.2,0.4 -0.2,0.7 -0.2,0.6 -0.4,1.1 -0.6,1.7 -0.1,0.2 -0.2,0.5 -0.3,0.7 -0.2,0.5 -0.5,1.1 -0.7,1.6 -0.1,0.2 -0.2,0.5 -0.3,0.7 -0.2,0.5 -0.5,1 -0.7,1.6 -0.1,0.2 -0.2,0.5 -0.4,0.7 -0.2,0.5 -0.5,1 -0.8,1.5 -0.1,0.3 -0.3,0.5 -0.4,0.8 -0.3,0.5 -0.5,1 -0.8,1.4 -0.1,0.3 -0.3,0.5 -0.4,0.8 -0.3,0.5 -0.5,0.9 -0.8,1.4 -0.2,0.3 -0.3,0.5 -0.5,0.8 -0.3,0.4 -0.6,0.9 -0.9,1.3 -0.2,0.3 -0.4,0.5 -0.5,0.8 -0.3,0.4 -0.6,0.9 -0.9,1.3 -0.2,0.3 -0.4,0.5 -0.6,0.8 -0.1,0.1 -0.2,0.2 -0.3,0.4 8.5,-0.7 12.8,-1.6 14.4,-2 v 17 c -2.4,0.5 -13.8,2.5 -33.6,3 -0.3,0.2 -0.6,0.4 -0.9,0.5 -0.3,0.2 -0.6,0.4 -1,0.6 -0.4,0.3 -0.9,0.5 -1.3,0.7 -0.3,0.2 -0.6,0.4 -0.9,0.5 -0.5,0.3 -1,0.5 -1.5,0.8 -0.3,0.1 -0.5,0.3 -0.8,0.4 -0.8,0.4 -1.5,0.8 -2.3,1.1 v 0 c -0.7,-0.3 -1.4,-0.7 -2.1,-1 -0.2,-0.1 -0.4,-0.2 -0.6,-0.3 -0.5,-0.3 -1.1,-0.6 -1.6,-0.8 -0.2,-0.1 -0.3,-0.2 -0.5,-0.3 -0.7,-0.4 -1.3,-0.7 -2,-1.1 -0.1,-0.1 -0.3,-0.2 -0.4,-0.3 -0.5,-0.3 -1,-0.6 -1.4,-0.9 -19.7,-0.5 -31.2,-2.5 -33.5,-3 v -5.1 c 0,0 0,0 0,0 0,-0.1 0,-0.1 0,-0.2 v -11.8 c 1.4,0.3 4.6,1 10.6,1.7 1.2,0.1 2.4,0.2 3.7,0.3 0,0 -0.1,-0.1 -0.1,-0.1 -0.2,-0.3 -0.5,-0.6 -0.7,-1 -0.2,-0.3 -0.4,-0.6 -0.6,-0.9 -0.3,-0.5 -0.7,-1 -1,-1.5 -0.2,-0.4 -0.5,-0.7 -0.7,-1.1 -0.2,-0.3 -0.4,-0.6 -0.6,-0.9 -0.2,-0.3 -0.4,-0.7 -0.6,-1 -0.2,-0.3 -0.4,-0.6 -0.5,-0.9 -0.3,-0.5 -0.6,-1.1 -0.9,-1.7 -0.2,-0.3 -0.4,-0.7 -0.5,-1 -0.2,-0.4 -0.4,-0.7 -0.6,-1.1 -0.1,-0.3 -0.3,-0.6 -0.4,-0.9 -0.2,-0.4 -0.4,-0.8 -0.5,-1.1 C 39.3,99.7 39.1,99.4 39,99.1 38.7,98.4 38.4,97.8 38.2,97.1 38.1,96.8 38,96.5 37.8,96.2 37.6,95.8 37.5,95.4 37.3,95 37.2,94.7 37.1,94.4 37,94.1 c -0.1,-0.4 -0.3,-0.8 -0.4,-1.2 0,0 0,0 0,0 C 36.4,92.3 36.2,91.7 36,91.2 35.9,90.8 35.8,90.4 35.6,90 35.5,89.7 35.4,89.4 35.4,89.2 35,87.7 34.6,86.1 34.3,84.6 c 0,-0.1 0,-0.2 -0.1,-0.3 -0.5,-2.4 -0.8,-4.9 -1.1,-7.4 0,-0.1 0,-0.2 0,-0.3 C 33,76 33,75.3 32.9,74.7 c 0,-0.3 0,-0.6 0,-0.9 0,-0.5 -0.1,-1 -0.1,-1.4 0,-0.8 0,-1.6 0,-2.5 0,-2.8 0,-23.6 0,-31.9 0,-0.4 0,-1 0,-1.6 0,-4.3 0,-13.3 0,-19.1 C 57.2,17.2 75,7.1 75,7.1 M 75,4 73.7,4.8 v 0 c -0.2,0.1 -17.6,9.7 -40.8,9.7 h -2.7 v 2.7 19.1 1.6 31.9 c 0,0.8 0,1.7 0,2.6 0,0.4 0,0.8 0.1,1.2 v 0.3 0.3 c 0,0.2 0,0.4 0,0.7 0,0.7 0.1,1.3 0.2,2 v 0.1 0.2 c 0.2,2.6 0.6,5.1 1.1,7.7 l 0.1,0.3 v 0.1 c 0.3,1.6 0.7,3.2 1.2,4.8 0.1,0.3 0.2,0.6 0.2,0.9 v 0.1 c 0.1,0.4 0.2,0.8 0.4,1.2 0.2,0.6 0.4,1.2 0.6,1.8 0.1,0.4 0.3,0.7 0.4,1.1 l 0.1,0.2 c 0.1,0.3 0.2,0.6 0.3,0.9 0.2,0.4 0.3,0.8 0.5,1.3 0.1,0.3 0.2,0.5 0.3,0.8 l 0.1,0.1 c 0.3,0.7 0.6,1.4 0.9,2.1 l 0.1,0.2 c 0.1,0.2 0.2,0.5 0.3,0.7 0.2,0.4 0.4,0.8 0.6,1.2 0.1,0.3 0.3,0.6 0.4,0.9 0.2,0.4 0.4,0.8 0.6,1.2 0.2,0.3 0.3,0.6 0.5,0.9 l 0.1,0.2 c 0.3,0.6 0.6,1.2 1,1.7 0.2,0.3 0.4,0.6 0.5,1 0.2,0.4 0.4,0.7 0.6,1.1 0.1,0.2 0.3,0.5 0.4,0.7 -4.4,-0.5 -6.9,-1.1 -8,-1.3 l -3.4,-0.9 v 3.5 11.8 0.2 0 5.1 2.3 l 2.2,0.4 c 3,0.6 14.1,2.5 33.2,3 0.3,0.2 0.6,0.3 0.8,0.5 l 0.2,0.1 0.3,0.2 c 0.7,0.4 1.3,0.8 2,1.2 l 0.3,0.2 0.2,0.1 c 0.5,0.3 1.1,0.6 1.6,0.9 h 0.1 c 0.2,0.1 0.4,0.2 0.5,0.3 0.8,0.4 1.5,0.7 2.1,1.1 l 0.6,0.3 h 0.5 0.6 l 0.6,-0.3 c 0.8,-0.4 1.6,-0.8 2.4,-1.2 0.2,-0.1 0.3,-0.2 0.5,-0.3 l 0.3,-0.2 0.2,-0.1 c 0.4,-0.2 0.9,-0.5 1.3,-0.7 0.2,-0.1 0.4,-0.2 0.6,-0.4 l 0.3,-0.2 0.3,-0.2 c 0.4,-0.2 0.7,-0.4 1.1,-0.6 0.2,-0.1 0.5,-0.3 0.7,-0.4 l 0.3,-0.2 0.2,-0.2 c 19.7,-0.5 31.2,-2.6 33.4,-3 L 120,131 v -2.3 -17 -3.5 l -3.4,0.9 c -1,0.3 -3.5,0.8 -8.2,1.4 0.1,-0.2 0.2,-0.4 0.4,-0.6 0.3,-0.5 0.6,-1 0.9,-1.4 0.2,-0.3 0.3,-0.5 0.5,-0.8 0.3,-0.5 0.6,-1 0.8,-1.5 0.1,-0.3 0.3,-0.5 0.4,-0.8 0.3,-0.5 0.5,-1 0.8,-1.6 0.1,-0.3 0.3,-0.5 0.4,-0.8 0.3,-0.5 0.5,-1.1 0.8,-1.6 0.1,-0.2 0.2,-0.5 0.3,-0.7 0.2,-0.6 0.5,-1.1 0.7,-1.7 0.1,-0.2 0.2,-0.4 0.3,-0.6 v -0.1 c 0.2,-0.6 0.5,-1.2 0.7,-1.8 0.1,-0.2 0.1,-0.4 0.2,-0.6 l 0.1,-0.1 c 0.2,-0.6 0.4,-1.2 0.6,-1.8 0.1,-0.2 0.1,-0.3 0.2,-0.5 l 0.1,-0.2 c 0.2,-0.6 0.4,-1.3 0.6,-1.9 0,-0.1 0.1,-0.3 0.1,-0.4 l 0.1,-0.2 c 0.2,-0.7 0.4,-1.3 0.5,-2 l 0.1,-0.4 v -0.2 c 0.2,-0.7 0.3,-1.4 0.5,-2 l 0.1,-0.3 v -0.2 c 0.1,-0.7 0.3,-1.4 0.4,-2.1 l 0.1,-0.3 v -0.2 c 0.1,-0.7 0.2,-1.5 0.3,-2.2 v -0.3 -0.1 c 0.1,-0.9 0.2,-1.6 0.3,-2.3 V 78 77.9 c 0.1,-0.9 0.2,-1.7 0.2,-2.4 v -0.1 c 0.1,-1.8 0.2,-3.5 0.2,-5.1 V 44 36.3 17.2 14.5 h -2.7 C 94.1,14.5 76.7,4.9 76.6,4.8 Z"
   id="path14" />
		</g>
		<g
   id="g22">
			<path
   class="st0"
   d="m 117,111.1 -13.7,-5.1 5.5,-0.7 c 3.8,-0.5 13.2,-1.7 17.9,-2.6 l 2.5,-0.5 -4.5,11 4.5,8.7 -1.7,0.4 c -1.3,0.3 -4.9,1.1 -8.8,1.7 l -1.6,0.2 v -13.1 z"
   id="path18" />
			<path
   class="st0"
   d="m 126.9,104 -3.7,9 c -0.1,0.2 -0.1,0.3 0,0.5 l 3.9,7.4 c -1.5,0.3 -4.9,1.1 -8.7,1.7 v -11.9 c 0,0 0,0 0,0 0,-0.1 0,-0.2 -0.1,-0.3 0,0 0,0 0,0 0,-0.1 -0.1,-0.1 -0.2,-0.2 0,0 0,0 0,0 0,0 0,0 0,0 0,0 -0.1,-0.1 -0.1,-0.1 l -9,-3.4 c 4.2,-0.7 13.3,-1.9 17.9,-2.7 m 4.5,-3.7 -5,0.9 c -4.7,0.9 -14,2.1 -17.8,2.6 l -10.9,1.4 10.3,3.9 7.6,2.9 v 10.4 3.2 l 3.1,-0.5 c 4,-0.6 7.6,-1.4 9,-1.7 l 3.5,-0.8 -1.6,-3.1 -3.4,-6.5 3.3,-8 z"
   id="path20" />
		</g>
		<g
   id="g28">
			<path
   class="st0"
   d="m 42.7,112.6 c -4.3,-0.5 -7,-1 -8.6,-1.3 l -2.7,-0.6 12.2,-4.7 v 6.6 z"
   id="path24" />
			<path
   class="st0"
   d="m 42.7,107.3 v 4.5 c -4.2,-0.5 -6.9,-0.9 -8.5,-1.3 l 8.5,-3.2 m 1.7,-2.4 -2.2,0.8 -8.5,3.2 -5.2,2 5.5,1.2 c 1.6,0.3 4.4,0.8 8.7,1.3 l 1.8,0.2 v -1.8 -4.5 z"
   id="path26" />
		</g>
		<g
   id="g34">
			<path
   class="st0"
   d="m 31.5,123.9 c -4,-0.6 -7.5,-1.4 -8.8,-1.7 l -1.7,-0.4 4.5,-8.7 -4.5,-11 2.5,0.5 c 4.5,0.9 13.1,2 17.9,2.6 l 5.5,0.7 -13.7,5.1 v 13 z"
   id="path30" />
			<path
   class="st0"
   d="m 23.2,104 c 4.7,0.9 13.7,2.1 18,2.6 l -9,3.4 c 0,0 0,0 0,0 0,0 -0.1,0 -0.1,0.1 0,0 0,0 0,0.1 0,0 0,0 0,0 -0.1,0.1 -0.2,0.3 -0.2,0.4 v 11.9 c -3.8,-0.6 -7.3,-1.3 -8.7,-1.7 l 3.9,-7.4 c 0.1,-0.2 0.1,-0.3 0,-0.5 L 23.2,104 m -4.5,-3.7 1.9,4.7 3.3,8 -3.4,6.5 -1.6,3.1 3.5,0.8 c 1.3,0.3 4.9,1.1 8.9,1.7 l 3.1,0.5 V 122.4 112 l 7.7,-2.9 10.3,-3.9 -10.9,-1.4 c -3.8,-0.5 -13.1,-1.7 -17.8,-2.6 z"
   id="path32" />
		</g>
		<g
   id="g40">
			<path
   class="st0"
   d="m 106.4,106 12.3,4.7 -2.7,0.6 c -2.4,0.5 -5.3,1 -8.6,1.3 l -0.9,0.1 V 106 Z"
   id="path36" />
			<path
   class="st0"
   d="m 107.2,107.2 8.6,3.2 c -1.6,0.3 -4.3,0.8 -8.6,1.3 v -4.5 m -1.6,-2.4 v 2.4 4.6 1.8 l 1.8,-0.2 c 3.4,-0.4 6.3,-0.8 8.7,-1.3 l 5.5,-1.2 -5.2,-2 -8.6,-3.2 z"
   id="path38" />
		</g>
	</g><path
     d="m 42.504762,30.303175 c 0,-3 0,-12.3 0,-19.1 24.3,0 42.2,-10.0000004 42.2,-10.0000004 0,0 17.799998,10.0000004 42.199998,10.0000004 0,6.7 0,16.1 0,19.1 z"
     id="path44" /><path
     class="st1"
     d="m 84.704762,130.20317 c -24.9,-11.7 -42.2,-36.999995 -42.2,-66.299995 0,-3 0,-26.8 0,-33.6 24.3,0 59.999998,0 84.299998,0 0,6.7 0,30.6 0,33.6 0.1,29.3 -17.2,54.599995 -42.099998,66.299995 z"
     id="path51"
     style="fill:url(#SVGID_1_)" /><path
     class="st2"
     d="m 84.704762,130.20317 c -24.9,-11.7 -42.2,-36.999995 -42.2,-66.299995 0,-3 0,-26.8 0,-33.6 24.3,0 59.999998,0 84.299998,0 0,6.7 0,30.6 0,33.6 0.1,29.3 -17.2,54.599995 -42.099998,66.299995 z"
     id="path53" /><path
     class="st0"
     d="m 111.60476,24.403175 c 0.7,0.2 1.9,0.4 3.1,0.4 1.8,0 3.4,-0.3 3.9,-2.3 0.7,-3.3 -3.4,-2.4 -3,-4 0.1,-0.6 0.7,-0.8 1.5,-0.8 0.8,0 1.4,0.2 1.9,0.3 l 0.7,-1.6 c -0.6,-0.2 -1.2,-0.4 -2.7,-0.4 -1.3,0 -3.3,0.3 -3.8,2.3 -0.7,3.2 3.4,2.3 3,4 -0.1,0.6 -0.7,0.8 -1.5,0.8 -0.8,0 -1.8,-0.2 -2.5,-0.3 z m -3.3,-5.6 0.2,2.7 h -1.7 z m 2.8,5.8 -1.3,-8.5 h -1.9 l -5.2,8.5 h 2.4 l 0.8,-1.5 h 2.8 l 0.1,1.5 z m -11.299998,-5.8 0.199998,2.7 h -1.699998 z m 2.799998,5.8 -1.3,-8.5 h -1.899998 l -5.2,8.5 h 2.4 l 0.8,-1.5 h 2.799998 l 0.1,1.5 z m -9.399998,0 2,-8.5 h -2.2 l -0.8,3.3 h -2.9 l 0.8,-3.3 h -2.2 l -2,8.5 h 2.2 l 0.8,-3.5 h 2.9 l -0.8,3.5 z m -11.9,0 0.4,-1.7 h -3.7 l 0.4,-1.9 h 2.9 l 0.4,-1.7 h -2.9 l 0.4,-1.6 h 3.7 l 0.4,-1.7 h -5.9 l -2,8.5 h 5.9 z m -13.3,-8.5 -2,8.5 h 2.1 l 1.2,-5.1 2.1,5.1 h 2.1 l 2,-8.5 h -2.1 l -1.2,5.2 -2.1,-5.2 z m -3.5,8.5 0.4,-1.7 h -3.7 l 0.4,-1.9 h 2.9 l 0.4,-1.7 h -2.9 l 0.4,-1.6 h 3.7 l 0.4,-1.7 h -5.9 l -2,8.5 h 5.9 z m -9.2,-1.6 c -0.3,0.1 -0.6,0.1 -0.8,0.1 h -0.2 c -1.5,0 -1.6,-0.5 -1.3,-1.6 l 0.5,-2.2 c 0.3,-1.1 0.6,-1.6 2.4,-1.6 h 0.2 c 0.8,0 1.6,0.1 2.2,0.2 l 0.8,-1.6 c -1,-0.2 -1.7,-0.3 -3,-0.3 h -0.2 c -2.6,0 -4,0.8 -4.6,3.3 l -0.6,2.1 c -0.6,2.5 0.5,3.3 3.3,3.3 h 0.2 c 1.1,0 2,-0.1 3,-0.3 l 1,-4.1 h -2.2 z"
     id="path55" /><g
     id="g61"
     transform="translate(9.704762,-5.8968254)">
				<path
   class="st0"
   d="M 102.5,40.8 63,109.2 H 46.8 L 56.1,93 H 6.8 L 14.9,79 H 64.2 L 86.3,40.8 Z M 119,40.8 97,79 H 85.1 L 77,93 h 11.9 l -9.3,16.1 h 16.2 l 39.5,-68.3 z"
   id="path59" />
			</g><g
     id="g77"
     transform="translate(9.704762,-5.8968254)">
			<path
   class="st0"
   d="m 61.1,55.5 h -3.6 v 2.4 h -3.3 v -4.2 h -4.8 v 2.1 h -3.2 v 2.1 H 39.9 V 68 l 1,1.5 V 72 H 47 v 1.2 h 1 V 72 h 6.4 v 1.2 h 0.9 V 72 h 7.1 v -2.9 l 0.5,-1.5 v -9.8 h -1.8 z m -0.9,0.9 v 1.4 H 58.4 V 56.4 Z M 56.8,68.5 V 58.8 H 62 v 8.7 l -0.4,1 z m -9.6,-3.3 v -4.7 h 1.5 v 4.7 z m 3.9,-3.6 v 1 H 52 v -1 h 0.5 v -1.2 h 0.8 v 4.7 h -3.7 v -4.7 h 0.9 v 1.2 z m 4.7,4.5 v 2.4 h -8.7 v -2.4 z m 0,-5.6 v 4.7 h -1.6 v -4.7 z m -8.6,-2.7 v -1.2 h 2.3 v 1.2 z m 3.2,-3.2 h 2.9 v 3.2 h -2.9 z m 5.4,4.2 v 0.8 h -8.7 v -0.8 z m 5.7,10.6 v 1.7 H 41.9 V 69.4 Z M 40.8,65.1 v -2.9 h 4.1 v -0.9 h -4.1 v -2.5 h 5.4 v 9.7 H 41.3 L 40.8,67.7 V 66 h 4.1 v -0.9 z"
   id="path65" />
			<path
   class="st0"
   d="m 57.5,65.1 h 3.4 v -0.9 h -2.5 v -0.5 h 2.7 v -4.1 h -3.6 z m 0.9,-2.4 v -2.2 h 1.8 v 2.2 z"
   id="path67" />
			<path
   class="st0"
   d="m 74,46.4 v -1.1 h -1.9 c -0.5,-0.9 -1.4,-1.5 -2.5,-1.5 -0.6,0 -1.1,0.2 -1.5,0.4 -1,-0.4 -1.7,-0.6 -2.9,-0.6 H 54.8 V 41 c 0,-0.5 -0.4,-0.9 -0.9,-0.9 h -0.1 c -0.7,0.1 -6.7,1 -7.5,1.3 l -3.1,1.1 -0.4,-0.7 C 42.6,41.3 42,41 41.4,41 h -6 l 1.5,4.1 h 1.7 c -0.3,0.5 -0.5,1 -0.5,1.6 0,1.6 1.3,2.9 2.9,2.9 0.9,0 1.7,-0.4 2.3,-1.1 h 22.3 v -0.4 c 0,-0.1 0,-0.5 0.5,-0.5 h 0.5 c 0.4,1.2 1.5,2 2.8,2 1.1,0 2,-0.6 2.5,-1.5 0.1,0.2 0.4,0.4 0.7,0.4 h 4.6 V 46.3 H 74 Z m -9.6,-1.8 v 1 h -7.5 v -1 z m -23.3,4.3 c -1.2,0 -2.1,-1 -2.1,-2.1 0,-1.2 1,-2.1 2.1,-2.1 1.2,0 2.1,1 2.1,2.1 0,1.1 -0.9,2.1 -2.1,2.1 z m 25.2,-2.1 c -0.7,0 -1.1,0.5 -1.3,0.9 H 43.8 c 0.1,-0.3 0.2,-0.7 0.2,-1 0,-1.6 -1.3,-2.9 -2.9,-2.9 -0.6,0 -1.2,0.2 -1.7,0.5 h -2 l -0.9,-2.5 h 4.9 c 0.3,0 0.5,0.2 0.7,0.4 l 0.7,1.4 3.8,-1.3 c 0.6,-0.2 4.7,-0.9 7.3,-1.2 0,0 0,0 0,0.1 v 2.7 L 49.2,44 c -0.4,0 -0.8,0.1 -1.2,0.2 l -2.9,1 0.2,0.8 2.9,-1 c 0.3,-0.1 0.6,-0.2 0.9,-0.2 l 5,-0.1 v 0 h 1.7 v 1.9 h 9.1 v -1.9 c 0.9,0 1.4,0.1 2.1,0.4 -0.4,0.5 -0.7,1.2 -0.7,1.9 0,0 0,0.1 0,0.1 v 0 z m 3.2,2.1 c -1.2,0 -2.1,-1 -2.1,-2.1 0,-1.2 1,-2.1 2.1,-2.1 1.2,0 2.1,1 2.1,2.1 0,0 0,0.1 0,0.1 v 0 0.2 c -0.1,1 -1,1.8 -2.1,1.8 z m 7,-1.1 h -3.8 c 0,-0.3 -0.1,-0.5 -0.3,-0.7 0,-0.1 0,-0.2 0,-0.3 0,-0.2 0,-0.4 -0.1,-0.7 h 0.8 v 1.1 h 3.4 z"
   id="path69" />
			<path
   class="st0"
   d="m 58.9,43.2 c 0,-1.1 -0.9,-1.9 -1.9,-1.9 -1.1,0 -1.9,0.9 -1.9,1.9 v 0.4 H 59 v -0.4 z m -3.1,-0.4 c 0.2,-0.4 0.6,-0.7 1.1,-0.7 0.5,0 0.9,0.3 1.1,0.7 z"
   id="path71" />
			<path
   class="st0"
   d="m 41.1,45.1 c -0.9,0 -1.6,0.7 -1.6,1.6 0,0.9 0.7,1.6 1.6,1.6 0.9,0 1.6,-0.7 1.6,-1.6 0,-0.9 -0.7,-1.6 -1.6,-1.6 z m 0,2.4 c -0.4,0 -0.8,-0.4 -0.8,-0.8 0,-0.4 0.4,-0.8 0.8,-0.8 0.4,0 0.8,0.4 0.8,0.8 0,0.4 -0.3,0.8 -0.8,0.8 z"
   id="path73" />
			<path
   class="st0"
   d="m 69.5,45.1 c -0.9,0 -1.6,0.7 -1.6,1.6 0,0.9 0.7,1.6 1.6,1.6 0.9,0 1.6,-0.7 1.6,-1.6 0,-0.9 -0.7,-1.6 -1.6,-1.6 z m 0,2.4 c -0.4,0 -0.8,-0.4 -0.8,-0.8 0,-0.4 0.4,-0.8 0.8,-0.8 0.4,0 0.8,0.4 0.8,0.8 0,0.4 -0.3,0.8 -0.8,0.8 z"
   id="path75" />
		</g><g
     id="g113"
     transform="translate(9.704762,-5.8968254)">
			<g
   id="g89">
				<path
   class="st3"
   d="m 118.1,110.1 c 0,0 0,0 0,0 0.1,0 0.1,0 0,0 0.1,0.1 0.2,0.1 0.2,0.2 0,0 0,0 0,0 0,0.1 0.1,0.2 0.1,0.3 0,0 0,0 0,0 v 11.9 c 3.8,-0.6 7.3,-1.3 8.7,-1.7 l -3.9,-7.4 c -0.1,-0.2 -0.1,-0.3 0,-0.5 l 3.7,-9 c -4.7,0.9 -13.7,2.1 -18,2.6 l 9,3.4 c 0.2,0.1 0.2,0.1 0.2,0.2 z"
   id="path79" />
				<path
   class="st3"
   d="m 42.7,111.8 v -4.5 l -8.5,3.2 c 1.6,0.4 4.4,0.8 8.5,1.3 z"
   id="path81" />
				<path
   class="st3"
   d="m 26.9,113.4 -3.9,7.4 c 1.5,0.3 4.9,1.1 8.7,1.7 v -11.9 c 0,-0.2 0.1,-0.3 0.2,-0.4 0,0 0,0 0,0 0,0 0,0 0,-0.1 0,0 0.1,0 0.1,-0.1 0,0 0,0 0,0 l 9,-3.4 C 36.7,106 27.7,104.8 23,104 l 3.7,9 c 0.3,0.1 0.3,0.3 0.2,0.4 z"
   id="path83" />
				<path
   class="st3"
   d="m 115.8,110.4 -8.6,-3.2 v 4.6 c 4.3,-0.5 7,-1 8.6,-1.4 z"
   id="path85" />
				<path
   class="st3"
   d="m 32.9,123.1 c 0,0 0,0.1 0,0.2 0,0 0,0 0,0 v 5.1 c 2.7,0.5 17.1,3.1 42.1,3.1 25,0 39.4,-2.5 42.1,-3.1 v -17 c -2.9,0.7 -14,3 -42.1,3 -12.5,0 -23.1,-0.4 -31.5,-1.3 -6,-0.6 -9.3,-1.3 -10.6,-1.7 0,-0.1 0,11.7 0,11.7 z"
   id="path87" />
			</g>
			<g
   id="g111">
				<path
   class="st4"
   d="m 47.5,119.2 -0.1,1.1 -3.7,-0.4 -0.2,1.5 3.1,0.3 -0.1,1 -3.1,-0.3 -0.2,2.4 -1.4,-0.2 0.6,-5.9 z"
   id="path91" />
				<path
   class="st4"
   d="m 54.2,122.2 -0.1,1 c -0.1,1.5 -1.3,2.5 -3.3,2.3 -1.9,-0.1 -3,-1.3 -2.9,-2.8 l 0.1,-1 c 0.1,-1.5 1.3,-2.5 3.2,-2.3 2.1,0.1 3.1,1.3 3,2.8 z m -1.4,-0.1 c 0.1,-1 -0.4,-1.5 -1.5,-1.6 -1.1,-0.1 -1.6,0.4 -1.7,1.4 l -0.1,1 c -0.1,1 0.4,1.6 1.5,1.7 1.1,0.1 1.7,-0.4 1.7,-1.4 z"
   id="path93" />
				<path
   class="st4"
   d="m 61.6,120.1 -0.2,3.5 c -0.1,1.5 -1.2,2.5 -3.2,2.4 -1.9,-0.1 -3,-1.2 -2.9,-2.6 l 0.2,-3.6 1.5,0.1 -0.2,3.6 c 0,0.9 0.7,1.4 1.5,1.4 1,0.1 1.6,-0.4 1.7,-1.3 l 0.2,-3.6 z"
   id="path95" />
				<path
   class="st4"
   d="m 64.1,120.2 3.3,4 v 0 l 0.1,-3.9 h 1.3 l -0.2,6 h -1.1 l -3.4,-4 v 0 l -0.1,3.9 h -1.3 l 0.2,-6 z"
   id="path97" />
				<path
   class="st4"
   d="m 73.4,120.3 c 1.9,0 3.1,1.1 3.1,2.6 v 0.9 c 0,1.5 -1.1,2.6 -3.1,2.5 h -3.1 v -6 z m 0,1.1 h -1.6 v 3.8 h 1.6 c 1.1,0 1.6,-0.5 1.6,-1.5 V 123 c 0,-1.1 -0.5,-1.6 -1.6,-1.6 z"
   id="path99" />
				<path
   class="st4"
   d="m 78.2,126.3 h -1.5 l 2.8,-6 H 81 l 3,5.9 H 82.5 L 82,125 l -3.2,0.1 z m 1,-2.3 h 2.4 l -1.2,-2.6 v 0 z"
   id="path101" />
				<path
   class="st4"
   d="m 89.2,120 v 1.1 l -2.1,0.1 0.2,4.8 -1.4,0.1 -0.2,-4.8 -2.1,0.1 v -1.1 z"
   id="path103" />
				<path
   class="st4"
   d="m 91.7,119.9 0.3,6 -1.4,0.1 -0.3,-6 z"
   id="path105" />
				<path
   class="st4"
   d="m 99.4,121.9 0.1,1 c 0.1,1.5 -0.9,2.6 -2.9,2.8 -1.9,0.1 -3.1,-0.8 -3.2,-2.3 l -0.1,-1 c -0.1,-1.5 0.9,-2.6 2.9,-2.8 1.9,-0.2 3.1,0.8 3.2,2.3 z m -1.5,0.1 c -0.1,-1 -0.6,-1.5 -1.7,-1.4 -1.1,0.1 -1.6,0.6 -1.5,1.6 l 0.1,1 c 0.1,1 0.6,1.5 1.7,1.4 1.1,-0.1 1.6,-0.6 1.5,-1.6 z"
   id="path107" />
				<path
   class="st4"
   d="m 101.5,119.2 3.8,3.5 v 0 l -0.4,-3.9 1.3,-0.1 0.6,5.9 -1.1,0.1 -3.8,-3.6 v 0 l 0.4,3.9 -1.3,0.1 -0.6,-5.9 z"
   id="path109" />
			</g>
		</g></g>
</svg>
